<?xml version="1.0" encoding="utf-8"?>
<!-- Generator: Adobe Illustrator 21.1.0, SVG Export Plug-In . SVG Version: 6.00 Build 0)  -->
<svg version="1.1" id="Layer_1" xmlns="http://www.w3.org/2000/svg" xmlns:xlink="http://www.w3.org/1999/xlink" x="0px" y="0px"
	 viewBox="0 0 16 16" style="enable-background:new 0 0 16 16;" xml:space="preserve">
<style type="text/css">
	.st0{fill:#004165;}
</style>
<g>
	<path class="st0" d="M8,16c-0.529,0-0.96-0.431-0.96-0.96V8.96H0.96C0.431,8.96,0,8.529,0,8c0-0.529,0.431-0.96,0.96-0.96h6.08
		V0.96C7.04,0.431,7.471,0,8,0c0.529,0,0.96,0.431,0.96,0.96v6.08h6.08C15.569,7.04,16,7.471,16,8c0,0.529-0.431,0.96-0.96,0.96
		H8.96v6.08C8.96,15.569,8.529,16,8,16L8,16z"/>
</g>
</svg>
