<?xml version="1.0" encoding="utf-8"?>
<!-- Generator: Adobe Illustrator 21.1.0, SVG Export Plug-In . SVG Version: 6.00 Build 0)  -->
<svg version="1.1" id="Layer_1" xmlns="http://www.w3.org/2000/svg" xmlns:xlink="http://www.w3.org/1999/xlink" x="0px" y="0px"
	 viewBox="0 0 16 16" style="enable-background:new 0 0 16 16;" xml:space="preserve">
<style type="text/css">
	.st0{fill:#007DBA;}
</style>
<g>
	<path class="st0" d="M14.056,4.378v0.001l-0.016-0.076c-0.029-0.107-0.08-0.197-0.147-0.263l-3.866-3.867
		c-0.071-0.071-0.161-0.12-0.274-0.15L9.652,0H2.521C2.197,0,1.934,0.263,1.934,0.587v14.826C1.934,15.737,2.197,16,2.521,16h10.958
		c0.324,0,0.587-0.263,0.587-0.587V4.455C14.066,4.413,14.058,4.378,14.056,4.378L14.056,4.378z M5.012,4.6h3.075
		c0.276,0,0.5,0.224,0.5,0.5c0,0.276-0.224,0.5-0.5,0.5H5.012c-0.276,0-0.5-0.224-0.5-0.5C4.512,4.824,4.736,4.6,5.012,4.6
		L5.012,4.6z M10.986,13.335H5.012c-0.276,0-0.5-0.224-0.5-0.5c0-0.276,0.224-0.5,0.5-0.5h5.974c0.276,0,0.5,0.224,0.5,0.5
		C11.486,13.111,11.262,13.335,10.986,13.335L10.986,13.335z M10.986,9.467H5.012c-0.276,0-0.5-0.224-0.5-0.5
		c0-0.276,0.224-0.5,0.5-0.5h5.974c0.276,0,0.5,0.224,0.5,0.5C11.486,9.243,11.262,9.467,10.986,9.467L10.986,9.467z M9.905,4.161
		V1.296l2.865,2.865H9.905L9.905,4.161z"/>
</g>
</svg>
