<?xml version="1.0" encoding="utf-8"?>
<!-- Generator: Adobe Illustrator 21.1.0, SVG Export Plug-In . SVG Version: 6.00 Build 0)  -->
<svg version="1.1" id="Layer_1" xmlns="http://www.w3.org/2000/svg" xmlns:xlink="http://www.w3.org/1999/xlink" x="0px" y="0px"
	 viewBox="0 0 16 16" style="enable-background:new 0 0 16 16;" xml:space="preserve">
<style type="text/css">
	.st0{fill:#004165;}
</style>
<g>
	<g>
		<path class="st0" d="M8,3.043c0.286,0,0.56,0.123,0.749,0.338l6.999,7.913c0.177,0.199,0.266,0.456,0.249,0.723
			c-0.016,0.267-0.136,0.511-0.337,0.688c-0.176,0.16-0.413,0.252-0.661,0.252c-0.288,0-0.562-0.125-0.753-0.343L8,5.552
			l-6.251,7.066C1.562,12.832,1.288,12.957,1,12.957c-0.246,0-0.483-0.091-0.667-0.256c-0.195-0.172-0.315-0.417-0.331-0.684
			c-0.016-0.267,0.072-0.524,0.25-0.724l6.999-7.913C7.44,3.166,7.714,3.043,8,3.043L8,3.043z"/>
	</g>
</g>
</svg>
