<?xml version="1.0" encoding="utf-8"?>
<!-- Generator: Adobe Illustrator 21.1.0, SVG Export Plug-In . SVG Version: 6.00 Build 0)  -->
<svg version="1.1" id="Layer_1" xmlns="http://www.w3.org/2000/svg" xmlns:xlink="http://www.w3.org/1999/xlink" x="0px" y="0px"
	 viewBox="0 0 16 16" style="enable-background:new 0 0 16 16;" xml:space="preserve">
<style type="text/css">
	.st0{fill:#0072AC;}
</style>
<g>
	<path class="st0" d="M4.043,16c-0.287,0-0.561-0.124-0.75-0.339c-0.176-0.198-0.264-0.455-0.248-0.722
		c0.016-0.267,0.136-0.511,0.337-0.688L10.447,8L3.381,1.749c-0.2-0.176-0.32-0.421-0.336-0.687
		c-0.016-0.267,0.072-0.524,0.25-0.724C3.482,0.124,3.756,0,4.043,0c0.245,0,0.482,0.09,0.665,0.254l7.91,6.997
		C12.833,7.441,12.956,7.714,12.956,8c0,0.286-0.123,0.56-0.339,0.749l-7.912,6.999C4.526,15.91,4.29,16,4.043,16L4.043,16z"/>
</g>
</svg>
