<?xml version="1.0" encoding="utf-8"?>
<!-- Generator: Adobe Illustrator 21.1.0, SVG Export Plug-In . SVG Version: 6.00 Build 0)  -->
<svg version="1.1" id="Layer_1" xmlns="http://www.w3.org/2000/svg" xmlns:xlink="http://www.w3.org/1999/xlink" x="0px" y="0px"
	 viewBox="0 0 16 16" style="enable-background:new 0 0 16 16;" xml:space="preserve">
<style type="text/css">
	.st0{fill:#007DBA;}
</style>
<g>
	<path class="st0" d="M5.053,0.533C3.664,1.051,2.48,1.924,1.609,3.049c0.589,0.414,1.306,0.762,2.107,1.037
		C4.008,2.671,4.468,1.461,5.053,0.533L5.053,0.533z M3.353,7.81c0-0.786,0.048-1.537,0.131-2.256c-1-0.32-1.902-0.748-2.655-1.268
		C0.3,5.339,0,6.532,0,7.81c0,1.349,0.325,2.62,0.89,3.743c0.747-0.481,1.641-0.871,2.634-1.164C3.412,9.544,3.353,8.675,3.353,7.81
		L3.353,7.81z M7.641,11.234c-0.855,0.019-1.679,0.112-2.458,0.259C5.76,14.211,6.916,15.996,7.985,16c0.004,0,0.008,0,0.012,0
		c1.096-0.009,2.278-1.746,2.847-4.497c-0.893-0.175-1.849-0.273-2.841-0.273C7.882,11.23,7.761,11.231,7.641,11.234L7.641,11.234z
		 M1.659,12.791c0.89,1.187,2.086,2.115,3.469,2.66c-0.594-0.973-1.049-2.228-1.349-3.616C2.972,12.086,2.252,12.407,1.659,12.791
		L1.659,12.791z M4.91,5.916c-0.064,0.6-0.102,1.231-0.102,1.894c0,0.787,0.051,1.537,0.137,2.246C5.79,9.9,6.68,9.8,7.608,9.779
		C7.739,9.777,7.87,9.775,8.004,9.775c1.063,0,2.094,0.108,3.067,0.297c0.076-0.663,0.121-1.364,0.121-2.105
		c0-0.719-0.043-1.4-0.116-2.047C10.093,6.115,9.05,6.226,7.975,6.226C6.914,6.226,5.884,6.113,4.91,5.916L4.91,5.916z
		 M10.928,15.43c1.359-0.541,2.532-1.442,3.41-2.587c-0.586-0.391-1.292-0.716-2.078-0.972
		C11.963,13.284,11.506,14.498,10.928,15.43L10.928,15.43z M15.123,4.357c-0.745,0.495-1.636,0.902-2.622,1.209
		c0.092,0.763,0.146,1.563,0.146,2.401c0,0.856-0.055,1.674-0.15,2.452c0.987,0.303,1.877,0.704,2.621,1.193
		C15.677,10.516,16,9.28,16,7.967C16,6.667,15.679,5.442,15.123,4.357L15.123,4.357z M10.851,4.483
		C10.284,1.735,9.099,0.001,8.002,0L8,0C7.968,0,7.936,0.002,7.904,0.005C6.812,0.103,5.671,1.816,5.13,4.476
		c0.901,0.189,1.863,0.295,2.845,0.295C8.968,4.772,9.94,4.668,10.851,4.483L10.851,4.483z M14.34,3.126
		c-0.875-1.135-2.047-2.028-3.402-2.563c0.576,0.927,1.032,2.135,1.327,3.541C13.05,3.843,13.757,3.517,14.34,3.126L14.34,3.126z"/>
</g>
</svg>
