<?xml version="1.0" encoding="utf-8"?>
<!-- Generator: Adobe Illustrator 21.1.0, SVG Export Plug-In . SVG Version: 6.00 Build 0)  -->
<svg version="1.1" id="Layer_1" xmlns="http://www.w3.org/2000/svg" xmlns:xlink="http://www.w3.org/1999/xlink" x="0px" y="0px"
	 viewBox="0 0 16 16" style="enable-background:new 0 0 16 16;" xml:space="preserve">
<style type="text/css">
	.st0{fill:#007DBA;}
</style>
<g>
	<path class="st0" d="M8,0C3.589,0,0,3.589,0,8c0,4.411,3.589,8,8,8c4.411,0,8-3.589,8-8C16,3.589,12.411,0,8,0L8,0z M7.637,1.551
		c0.723,0,1.311,0.588,1.311,1.31c0,0.723-0.588,1.312-1.311,1.312c-0.723,0-1.312-0.589-1.312-1.312
		C6.325,2.139,6.913,1.551,7.637,1.551L7.637,1.551z M10.182,13.857H5.819c-0.523,0-0.949-0.425-0.949-0.947
		c0-0.523,0.426-0.948,0.949-0.948h1.234v-4.65H6.545c-0.523,0-0.948-0.425-0.948-0.947c0-0.523,0.425-0.949,0.948-0.949H8
		c0.522,0,0.947,0.426,0.947,0.949l-0.005,5.597h1.24c0.523,0,0.948,0.425,0.948,0.948C11.13,13.431,10.705,13.857,10.182,13.857
		L10.182,13.857z"/>
</g>
</svg>
