<?xml version="1.0" encoding="utf-8"?>
<!-- Generator: Adobe Illustrator 21.1.0, SVG Export Plug-In . SVG Version: 6.00 Build 0)  -->
<svg version="1.1" id="Layer_1" xmlns="http://www.w3.org/2000/svg" xmlns:xlink="http://www.w3.org/1999/xlink" x="0px" y="0px"
	 viewBox="0 0 16 16" style="enable-background:new 0 0 16 16;" xml:space="preserve">
<style type="text/css">
	.st0{fill:#004165;}
</style>
<g>
	<g>
		<path class="st0" d="M8,12.957c-0.287,0-0.56-0.123-0.749-0.339L0.251,4.706C0.074,4.507-0.014,4.25,0.002,3.983
			c0.016-0.267,0.136-0.511,0.337-0.688C0.514,3.134,0.752,3.043,1,3.043c0.288,0,0.562,0.125,0.753,0.343L8,10.448l6.251-7.067
			c0.186-0.214,0.46-0.339,0.749-0.339c0.246,0,0.483,0.091,0.667,0.257c0.195,0.173,0.315,0.417,0.331,0.684
			c0.016,0.267-0.072,0.524-0.25,0.724L8.749,12.62C8.56,12.835,8.286,12.957,8,12.957L8,12.957z"/>
	</g>
</g>
</svg>
