<?xml version="1.0" encoding="utf-8"?>
<!-- Generator: Adobe Illustrator 21.1.0, SVG Export Plug-In . SVG Version: 6.00 Build 0)  -->
<svg version="1.1" id="Layer_1" xmlns="http://www.w3.org/2000/svg" xmlns:xlink="http://www.w3.org/1999/xlink" x="0px" y="0px"
	 viewBox="0 0 16 16" style="enable-background:new 0 0 16 16;" xml:space="preserve">
<style type="text/css">
	.st0{fill:#007DBA;}
</style>
<g>
	<g>
		<path class="st0" d="M11.581,11.623c-1.259,1.241-3.036,1.74-4.752,1.332c-2.158-0.509-3.757-2.433-3.963-4.526l1.222,1.462
			c0.189,0.226,0.524,0.256,0.749,0.068C5.063,9.77,5.092,9.435,4.905,9.21L2.84,6.738C2.819,6.706,2.794,6.678,2.767,6.651
			C2.66,6.535,2.506,6.474,2.347,6.479C2.18,6.488,2.027,6.576,1.934,6.714L0.09,9.462c-0.163,0.244-0.099,0.574,0.145,0.738
			c0.245,0.165,0.575,0.098,0.738-0.145l0.856-1.276c0.33,2.45,2.196,4.608,4.755,5.212c0.476,0.113,0.955,0.168,1.431,0.168
			c1.596-0.001,3.14-0.623,4.312-1.779c0.209-0.206,0.211-0.543,0.005-0.752C12.127,11.418,11.79,11.416,11.581,11.623
			L11.581,11.623z M15.765,6.47c-0.243-0.164-0.575-0.098-0.738,0.145l-0.704,1.048c-0.08-0.925-0.373-1.834-0.87-2.666
			c-0.898-1.505-2.37-2.594-4.036-2.988c-2.21-0.526-4.522,0.209-6.029,1.912c-0.195,0.22-0.174,0.556,0.046,0.751
			c0.22,0.194,0.556,0.174,0.751-0.046c1.247-1.409,3.157-2.015,4.988-1.582c1.388,0.328,2.616,1.239,3.368,2.498
			c0.531,0.888,0.781,1.879,0.737,2.87l-1.365-1.635c-0.188-0.225-0.523-0.256-0.749-0.067c-0.225,0.188-0.256,0.523-0.068,0.749
			l2.121,2.54c0.101,0.121,0.251,0.191,0.408,0.191c0.009,0,0.019,0,0.027-0.001c0.167-0.009,0.32-0.096,0.414-0.235l1.844-2.747
			C16.073,6.964,16.008,6.634,15.765,6.47L15.765,6.47z M8,10.207c-0.423,0-0.768-0.345-0.768-0.768c0-0.371-0.3-0.671-0.671-0.671
			c-0.371,0-0.671,0.3-0.671,0.671c0,0.927,0.605,1.708,1.439,1.99v0.408c0,0.371,0.3,0.671,0.671,0.671
			c0.371,0,0.671-0.3,0.671-0.671v-0.408c0.834-0.282,1.439-1.062,1.439-1.99c0-1.163-0.947-2.11-2.11-2.11
			c-0.423,0-0.768-0.345-0.768-0.768c0-0.423,0.345-0.768,0.768-0.768c0.424,0,0.769,0.345,0.769,0.768
			c0,0.371,0.3,0.671,0.671,0.671s0.671-0.3,0.671-0.671c0-0.928-0.606-1.708-1.439-1.99V4.162c0-0.371-0.3-0.671-0.671-0.671
			c-0.371,0-0.671,0.3-0.671,0.671V4.57C6.496,4.852,5.89,5.633,5.89,6.56C5.89,7.724,6.836,8.67,8,8.67
			c0.424,0,0.769,0.345,0.769,0.769C8.768,9.862,8.424,10.207,8,10.207L8,10.207z"/>
	</g>
</g>
</svg>
